%TF.GenerationSoftware,KiCad,Pcbnew,9.0.1*%
%TF.CreationDate,2026-03-15T23:03:18+04:00*%
%TF.ProjectId,D18BS20,44313842-5332-4302-9e6b-696361645f70,rev?*%
%TF.SameCoordinates,Original*%
%TF.FileFunction,Legend,Top*%
%TF.FilePolarity,Positive*%
%FSLAX46Y46*%
G04 Gerber Fmt 4.6, Leading zero omitted, Abs format (unit mm)*
G04 Created by KiCad (PCBNEW 9.0.1) date 2026-03-15 23:03:18*
%MOMM*%
%LPD*%
G01*
G04 APERTURE LIST*
%ADD10C,0.200000*%
%ADD11C,0.150000*%
%ADD12C,0.120000*%
G04 APERTURE END LIST*
D10*
G36*
X156030000Y-93443536D02*
G01*
X155850237Y-93457885D01*
X155850237Y-93751587D01*
X156030000Y-93839759D01*
X156030000Y-94164235D01*
X155049120Y-93620429D01*
X155049120Y-93483164D01*
X155272236Y-93483164D01*
X155272236Y-93490003D01*
X155306674Y-93502948D01*
X155366697Y-93528899D01*
X155619672Y-93647784D01*
X155619672Y-93472906D01*
X155372192Y-93485851D01*
X155339769Y-93486584D01*
X155272236Y-93483164D01*
X155049120Y-93483164D01*
X155049120Y-93253637D01*
X156030000Y-93142934D01*
X156030000Y-93443536D01*
G37*
G36*
X155486681Y-91758260D02*
G01*
X155539515Y-91761721D01*
X155605261Y-91773281D01*
X156030000Y-91862796D01*
X156030000Y-92153811D01*
X155645195Y-92071135D01*
X155603596Y-92062575D01*
X155575280Y-92060205D01*
X155549547Y-92065608D01*
X155535174Y-92080200D01*
X155529790Y-92106673D01*
X155534738Y-92129243D01*
X155552566Y-92158941D01*
X155578302Y-92186362D01*
X155612283Y-92211209D01*
X155650081Y-92230320D01*
X155687937Y-92241922D01*
X156030000Y-92312264D01*
X156030000Y-92604684D01*
X155645195Y-92522008D01*
X155601589Y-92512816D01*
X155575280Y-92510406D01*
X155549542Y-92515804D01*
X155535171Y-92530380D01*
X155529790Y-92556812D01*
X155534210Y-92579663D01*
X155549081Y-92605814D01*
X155578333Y-92636802D01*
X155612352Y-92662311D01*
X155648728Y-92680847D01*
X155687937Y-92692794D01*
X156030000Y-92765212D01*
X156030000Y-93057571D01*
X155565450Y-92958531D01*
X155450888Y-92936457D01*
X155330488Y-92917498D01*
X155330488Y-92631306D01*
X155407627Y-92637737D01*
X155451877Y-92644984D01*
X155451877Y-92642236D01*
X155394910Y-92581724D01*
X155351676Y-92513459D01*
X155330533Y-92463941D01*
X155318641Y-92418558D01*
X155314856Y-92376500D01*
X155319698Y-92325627D01*
X155332928Y-92286489D01*
X155353532Y-92256432D01*
X155381831Y-92233756D01*
X155419413Y-92217956D01*
X155468913Y-92209804D01*
X155425140Y-92171573D01*
X155387897Y-92128333D01*
X155356805Y-92079684D01*
X155333070Y-92027209D01*
X155319346Y-91976091D01*
X155314856Y-91925628D01*
X155320221Y-91871706D01*
X155334791Y-91831030D01*
X155357443Y-91800464D01*
X155388711Y-91778111D01*
X155430684Y-91763621D01*
X155486681Y-91758260D01*
G37*
G36*
X155659676Y-90881786D02*
G01*
X155742990Y-90901772D01*
X155818729Y-90934368D01*
X155887095Y-90979659D01*
X155942931Y-91034817D01*
X155987440Y-91100697D01*
X156019179Y-91173987D01*
X156038808Y-91256172D01*
X156045631Y-91348970D01*
X156043555Y-91395437D01*
X156039464Y-91435737D01*
X156350446Y-91504064D01*
X156350446Y-91796423D01*
X155576074Y-91631803D01*
X155433558Y-91603777D01*
X155330488Y-91589427D01*
X155330488Y-91310013D01*
X155455724Y-91325034D01*
X155455724Y-91322348D01*
X155402615Y-91279561D01*
X155363510Y-91234537D01*
X155360981Y-91230085D01*
X155529790Y-91230085D01*
X155535088Y-91257212D01*
X155552043Y-91284392D01*
X155584256Y-91312822D01*
X155622216Y-91334921D01*
X155674013Y-91356038D01*
X155742892Y-91375593D01*
X155857930Y-91402276D01*
X155861960Y-91358557D01*
X155857532Y-91319845D01*
X155844445Y-91284569D01*
X155822258Y-91251766D01*
X155789603Y-91220865D01*
X155738778Y-91189934D01*
X155680964Y-91171062D01*
X155614359Y-91164506D01*
X155574054Y-91169521D01*
X155549206Y-91182296D01*
X155534920Y-91201760D01*
X155529790Y-91230085D01*
X155360981Y-91230085D01*
X155336462Y-91186918D01*
X155320330Y-91135939D01*
X155314856Y-91080486D01*
X155319406Y-91035536D01*
X155332530Y-90996426D01*
X155354117Y-90961926D01*
X155384954Y-90931254D01*
X155434493Y-90900789D01*
X155494391Y-90881696D01*
X155567281Y-90874895D01*
X155659676Y-90881786D01*
G37*
G36*
X155486681Y-89998551D02*
G01*
X155536919Y-90002054D01*
X155605261Y-90014244D01*
X156030000Y-90103759D01*
X156030000Y-90394774D01*
X155645195Y-90312098D01*
X155601589Y-90302907D01*
X155575280Y-90300497D01*
X155549542Y-90305895D01*
X155535171Y-90320471D01*
X155529790Y-90346903D01*
X155534210Y-90369754D01*
X155549081Y-90395904D01*
X155578333Y-90426892D01*
X155612352Y-90452402D01*
X155648728Y-90470937D01*
X155687937Y-90482885D01*
X156030000Y-90553899D01*
X156030000Y-90847662D01*
X155565450Y-90748621D01*
X155450888Y-90726548D01*
X155330488Y-90707588D01*
X155330488Y-90421397D01*
X155407627Y-90427828D01*
X155451877Y-90435075D01*
X155451877Y-90432327D01*
X155394910Y-90371814D01*
X155351676Y-90303550D01*
X155330533Y-90254032D01*
X155318641Y-90208649D01*
X155314856Y-90166591D01*
X155320232Y-90112405D01*
X155334825Y-90071550D01*
X155357499Y-90040869D01*
X155388776Y-90018448D01*
X155430733Y-90003923D01*
X155486681Y-89998551D01*
G37*
G36*
X155133628Y-89491748D02*
G01*
X155174873Y-89497181D01*
X155209547Y-89512870D01*
X155239263Y-89539253D01*
X155261142Y-89572969D01*
X155274815Y-89613880D01*
X155279685Y-89663878D01*
X155275378Y-89708144D01*
X155263232Y-89744743D01*
X155243721Y-89775252D01*
X155217310Y-89799425D01*
X155187657Y-89813508D01*
X155153534Y-89818300D01*
X155111854Y-89812826D01*
X155076862Y-89797029D01*
X155046922Y-89770490D01*
X155024849Y-89736507D01*
X155011050Y-89695238D01*
X155006133Y-89644766D01*
X155010341Y-89601400D01*
X155022245Y-89565232D01*
X155041427Y-89534795D01*
X155067457Y-89510813D01*
X155097718Y-89496639D01*
X155133628Y-89491748D01*
G37*
G36*
X156045631Y-89715840D02*
G01*
X156039065Y-89782144D01*
X156020797Y-89835143D01*
X155991775Y-89877712D01*
X155952463Y-89910396D01*
X155905506Y-89930185D01*
X155848588Y-89937124D01*
X155802926Y-89933909D01*
X155742281Y-89922836D01*
X155330488Y-89833321D01*
X155330488Y-89542306D01*
X155731168Y-89627730D01*
X155784169Y-89634508D01*
X155805417Y-89629426D01*
X155817959Y-89614994D01*
X155822882Y-89587369D01*
X155818719Y-89549470D01*
X155805785Y-89510188D01*
X156018825Y-89555312D01*
X156027411Y-89578104D01*
X156037021Y-89617472D01*
X156043327Y-89661527D01*
X156045631Y-89715840D01*
G37*
G36*
X155559160Y-88901046D02*
G01*
X155543562Y-88932475D01*
X155533462Y-88971909D01*
X155529790Y-89021275D01*
X155536059Y-89071809D01*
X155554375Y-89116034D01*
X155585294Y-89155547D01*
X155625118Y-89186034D01*
X155670251Y-89204235D01*
X155722376Y-89210502D01*
X155762778Y-89205470D01*
X155791768Y-89191872D01*
X155812361Y-89170270D01*
X155825684Y-89138960D01*
X155830697Y-89094364D01*
X155828375Y-89060822D01*
X155820806Y-89021275D01*
X155808733Y-88982469D01*
X155793145Y-88948857D01*
X155993302Y-88989218D01*
X156015995Y-89040216D01*
X156032503Y-89096807D01*
X156042432Y-89154799D01*
X156045631Y-89209159D01*
X156040332Y-89276658D01*
X156025383Y-89333556D01*
X156001634Y-89381735D01*
X155969122Y-89422627D01*
X155928617Y-89455668D01*
X155881013Y-89479723D01*
X155824916Y-89494827D01*
X155758463Y-89500174D01*
X155678878Y-89493516D01*
X155604445Y-89473852D01*
X155534003Y-89441067D01*
X155470421Y-89396526D01*
X155417033Y-89342089D01*
X155373047Y-89276814D01*
X155341054Y-89204693D01*
X155321551Y-89126117D01*
X155314856Y-89039715D01*
X155319450Y-88965709D01*
X155332222Y-88904482D01*
X155352042Y-88853907D01*
X155559160Y-88901046D01*
G37*
G36*
X155540232Y-88260275D02*
G01*
X155511899Y-88347348D01*
X155501657Y-88397960D01*
X155498527Y-88440587D01*
X155503915Y-88479196D01*
X155516618Y-88497560D01*
X155536018Y-88503419D01*
X155553982Y-88499394D01*
X155566304Y-88487726D01*
X155587004Y-88446083D01*
X155620692Y-88371336D01*
X155645867Y-88330251D01*
X155674816Y-88299979D01*
X155707782Y-88279387D01*
X155746199Y-88267408D01*
X155797236Y-88262962D01*
X155844785Y-88267844D01*
X155887653Y-88282141D01*
X155926929Y-88306010D01*
X155960509Y-88337786D01*
X155989687Y-88378916D01*
X156014368Y-88431062D01*
X156031058Y-88486565D01*
X156041794Y-88552254D01*
X156045631Y-88629815D01*
X156043109Y-88698147D01*
X156035678Y-88763354D01*
X156024161Y-88825337D01*
X156011437Y-88873019D01*
X155810547Y-88835406D01*
X155842795Y-88752713D01*
X155860424Y-88681397D01*
X155865868Y-88619556D01*
X155861929Y-88575975D01*
X155852452Y-88551147D01*
X155839408Y-88538381D01*
X155822210Y-88534193D01*
X155804783Y-88538706D01*
X155790153Y-88553000D01*
X155768049Y-88600444D01*
X155741644Y-88667115D01*
X155714060Y-88713649D01*
X155685739Y-88744609D01*
X155650944Y-88767236D01*
X155609345Y-88781280D01*
X155559160Y-88786252D01*
X155512092Y-88781374D01*
X155469121Y-88767011D01*
X155429223Y-88742899D01*
X155394828Y-88710962D01*
X155366267Y-88671492D01*
X155343433Y-88623342D01*
X155328075Y-88571766D01*
X155318310Y-88512172D01*
X155314856Y-88443335D01*
X155316985Y-88391987D01*
X155324138Y-88326526D01*
X155343066Y-88222662D01*
X155540232Y-88260275D01*
G37*
G36*
X151645631Y-99091259D02*
G01*
X151643704Y-99042182D01*
X151638030Y-98996494D01*
X151629044Y-98955252D01*
X151616799Y-98917308D01*
X151601829Y-98883455D01*
X151584030Y-98852820D01*
X151563893Y-98825855D01*
X151541284Y-98802071D01*
X151489451Y-98764326D01*
X151428811Y-98739405D01*
X151359314Y-98727882D01*
X151336847Y-98727215D01*
X151299369Y-98729171D01*
X151264271Y-98735046D01*
X151233376Y-98744203D01*
X151204725Y-98756875D01*
X151179246Y-98772456D01*
X151155968Y-98791332D01*
X151116436Y-98838678D01*
X151085668Y-98900633D01*
X151064822Y-98977808D01*
X151046687Y-99080024D01*
X151037252Y-99124042D01*
X151024982Y-99159548D01*
X151012925Y-99182086D01*
X150998622Y-99199841D01*
X150983824Y-99211851D01*
X150966944Y-99220469D01*
X150925666Y-99228324D01*
X150918337Y-99228463D01*
X150891519Y-99226514D01*
X150867714Y-99220692D01*
X150848506Y-99211950D01*
X150831880Y-99199989D01*
X150806957Y-99167518D01*
X150791623Y-99120944D01*
X150787240Y-99068850D01*
X150789158Y-99032118D01*
X150794769Y-98997856D01*
X150803840Y-98966061D01*
X150816163Y-98936618D01*
X150850583Y-98883512D01*
X150887684Y-98846222D01*
X150773196Y-98738450D01*
X150746977Y-98761942D01*
X150723189Y-98788582D01*
X150702117Y-98818126D01*
X150683741Y-98850710D01*
X150668172Y-98886401D01*
X150655612Y-98925083D01*
X150640036Y-99012227D01*
X150637397Y-99070254D01*
X150639340Y-99119285D01*
X150645126Y-99165059D01*
X150654154Y-99205501D01*
X150666555Y-99242734D01*
X150681447Y-99275095D01*
X150699300Y-99304329D01*
X150719183Y-99329358D01*
X150741708Y-99351313D01*
X150766215Y-99369697D01*
X150793162Y-99384971D01*
X150854077Y-99405812D01*
X150925579Y-99413231D01*
X150926702Y-99413232D01*
X150965079Y-99411242D01*
X151001697Y-99405124D01*
X151033342Y-99395755D01*
X151063081Y-99382601D01*
X151088938Y-99366757D01*
X151112778Y-99347332D01*
X151133677Y-99325105D01*
X151152390Y-99299308D01*
X151168671Y-99270008D01*
X151182490Y-99236943D01*
X151201536Y-99162639D01*
X151218267Y-99059019D01*
X151226933Y-99016777D01*
X151238578Y-98982388D01*
X151250403Y-98960002D01*
X151264570Y-98942208D01*
X151279433Y-98929938D01*
X151296453Y-98920997D01*
X151338258Y-98912348D01*
X151349364Y-98912046D01*
X151376902Y-98913988D01*
X151401791Y-98919764D01*
X151422698Y-98928625D01*
X151441124Y-98940749D01*
X151469714Y-98973631D01*
X151488391Y-99019579D01*
X151495823Y-99081331D01*
X151495849Y-99085642D01*
X151493883Y-99122518D01*
X151487935Y-99158252D01*
X151478372Y-99191582D01*
X151464979Y-99223823D01*
X151426907Y-99284385D01*
X151373117Y-99340448D01*
X151487484Y-99451029D01*
X151517332Y-99425255D01*
X151544660Y-99396286D01*
X151568455Y-99365231D01*
X151589462Y-99331152D01*
X151607086Y-99294925D01*
X151621647Y-99255776D01*
X151632833Y-99214199D01*
X151640641Y-99169733D01*
X151645631Y-99091259D01*
G37*
G36*
X151630000Y-97930006D02*
G01*
X151492857Y-97930006D01*
X151492857Y-98149825D01*
X150790232Y-98149825D01*
X150790232Y-97930006D01*
X150653028Y-97930006D01*
X150653028Y-98551605D01*
X150790232Y-98551605D01*
X150790232Y-98331786D01*
X151492857Y-98331786D01*
X151492857Y-98551605D01*
X151630000Y-98551605D01*
X151630000Y-97930006D01*
G37*
G36*
X151630000Y-97232205D02*
G01*
X151630000Y-97068379D01*
X151118066Y-97068379D01*
X151118066Y-97410013D01*
X151251118Y-97410013D01*
X151251118Y-97232205D01*
X151331107Y-97232205D01*
X151361271Y-97234148D01*
X151389269Y-97239936D01*
X151413583Y-97248948D01*
X151435361Y-97261325D01*
X151453455Y-97276161D01*
X151468759Y-97293941D01*
X151480712Y-97313959D01*
X151489592Y-97336662D01*
X151495171Y-97361972D01*
X151497245Y-97389876D01*
X151497254Y-97391817D01*
X151495325Y-97420402D01*
X151489643Y-97446093D01*
X151480826Y-97468088D01*
X151468842Y-97487629D01*
X151435565Y-97519994D01*
X151387599Y-97544888D01*
X151320482Y-97562024D01*
X151228025Y-97569510D01*
X151213321Y-97569626D01*
X151056945Y-97569626D01*
X151001106Y-97567630D01*
X150950887Y-97561471D01*
X150912836Y-97552754D01*
X150879360Y-97540677D01*
X150854144Y-97527317D01*
X150832716Y-97511193D01*
X150816711Y-97494124D01*
X150804049Y-97474628D01*
X150795128Y-97453515D01*
X150789503Y-97430017D01*
X150787240Y-97400183D01*
X150789140Y-97372976D01*
X150794624Y-97349052D01*
X150814686Y-97310396D01*
X150847104Y-97279672D01*
X150895414Y-97253893D01*
X150945692Y-97236418D01*
X150898431Y-97068379D01*
X150854396Y-97082053D01*
X150813099Y-97099449D01*
X150779249Y-97118149D01*
X150748228Y-97140169D01*
X150722712Y-97163273D01*
X150700053Y-97189434D01*
X150681552Y-97216990D01*
X150666003Y-97247506D01*
X150653900Y-97280161D01*
X150644974Y-97315847D01*
X150639409Y-97354695D01*
X150637400Y-97396800D01*
X150637397Y-97398778D01*
X150639344Y-97442042D01*
X150645158Y-97482501D01*
X150654270Y-97518491D01*
X150666829Y-97551959D01*
X150682308Y-97582092D01*
X150700979Y-97609867D01*
X150747592Y-97658253D01*
X150807993Y-97698217D01*
X150884609Y-97729818D01*
X150980659Y-97752113D01*
X151099909Y-97763310D01*
X151147498Y-97764166D01*
X151219893Y-97762216D01*
X151287170Y-97756389D01*
X151345430Y-97747433D01*
X151398933Y-97735121D01*
X151444376Y-97720654D01*
X151485478Y-97703315D01*
X151519778Y-97684591D01*
X151550137Y-97663406D01*
X151575024Y-97641240D01*
X151596279Y-97616924D01*
X151613202Y-97591566D01*
X151626651Y-97564250D01*
X151642765Y-97504615D01*
X151645631Y-97463197D01*
X151643733Y-97429459D01*
X151638261Y-97398875D01*
X151617777Y-97346263D01*
X151585364Y-97302912D01*
X151540706Y-97267368D01*
X151493040Y-97243379D01*
X151493040Y-97232205D01*
X151630000Y-97232205D01*
G37*
G36*
X154205000Y-98951247D02*
G01*
X153228028Y-98683862D01*
X153228028Y-98875654D01*
X153722131Y-98998813D01*
X154030061Y-99071659D01*
X154030061Y-99081428D01*
X153722131Y-99152808D01*
X153228028Y-99274624D01*
X153228028Y-99476247D01*
X154205000Y-99208862D01*
X154205000Y-98951247D01*
G37*
G36*
X153756881Y-97878924D02*
G01*
X153870379Y-97889779D01*
X153962523Y-97912007D01*
X154036674Y-97943915D01*
X154095690Y-97984692D01*
X154141659Y-98034535D01*
X154160209Y-98063365D01*
X154175596Y-98094667D01*
X154188136Y-98129597D01*
X154197236Y-98167181D01*
X154203052Y-98209513D01*
X154205000Y-98254788D01*
X154205000Y-98558627D01*
X153228028Y-98558627D01*
X153228028Y-98267428D01*
X153375062Y-98267428D01*
X153375062Y-98378009D01*
X154058026Y-98378009D01*
X154058026Y-98267428D01*
X154052899Y-98215982D01*
X154035114Y-98167703D01*
X154021384Y-98147066D01*
X154004530Y-98128931D01*
X153983267Y-98112389D01*
X153958585Y-98098610D01*
X153927592Y-98086626D01*
X153892607Y-98077905D01*
X153848961Y-98071981D01*
X153800533Y-98070019D01*
X153631151Y-98070019D01*
X153544614Y-98077002D01*
X153482567Y-98094856D01*
X153436691Y-98121822D01*
X153403810Y-98157959D01*
X153391665Y-98180318D01*
X153382796Y-98205293D01*
X153377006Y-98234843D01*
X153375062Y-98267428D01*
X153228028Y-98267428D01*
X153228028Y-98254788D01*
X153228182Y-98241762D01*
X153237236Y-98159939D01*
X153259192Y-98090611D01*
X153274820Y-98059895D01*
X153293549Y-98031605D01*
X153315754Y-98005305D01*
X153341107Y-97981501D01*
X153370826Y-97959351D01*
X153403890Y-97939892D01*
X153442553Y-97922190D01*
X153484894Y-97907492D01*
X153534272Y-97895068D01*
X153587767Y-97886064D01*
X153649823Y-97880184D01*
X153716514Y-97878227D01*
X153756881Y-97878924D01*
G37*
G36*
X153756881Y-97039705D02*
G01*
X153870379Y-97050560D01*
X153962523Y-97072788D01*
X154036674Y-97104697D01*
X154095690Y-97145474D01*
X154141659Y-97195317D01*
X154160209Y-97224146D01*
X154175596Y-97255448D01*
X154188136Y-97290379D01*
X154197236Y-97327963D01*
X154203052Y-97370294D01*
X154205000Y-97415570D01*
X154205000Y-97719408D01*
X153228028Y-97719408D01*
X153228028Y-97428210D01*
X153375062Y-97428210D01*
X153375062Y-97538790D01*
X154058026Y-97538790D01*
X154058026Y-97428210D01*
X154052899Y-97376764D01*
X154035114Y-97328485D01*
X154021384Y-97307848D01*
X154004530Y-97289713D01*
X153983267Y-97273170D01*
X153958585Y-97259392D01*
X153927592Y-97247407D01*
X153892607Y-97238686D01*
X153848961Y-97232763D01*
X153800533Y-97230800D01*
X153631151Y-97230800D01*
X153544614Y-97237784D01*
X153482567Y-97255637D01*
X153436691Y-97282603D01*
X153403810Y-97318741D01*
X153391665Y-97341099D01*
X153382796Y-97366074D01*
X153377006Y-97395624D01*
X153375062Y-97428210D01*
X153228028Y-97428210D01*
X153228028Y-97415570D01*
X153228182Y-97402544D01*
X153237236Y-97320721D01*
X153259192Y-97251393D01*
X153274820Y-97220677D01*
X153293549Y-97192386D01*
X153315754Y-97166086D01*
X153341107Y-97142282D01*
X153370826Y-97120133D01*
X153403890Y-97100673D01*
X153442553Y-97082972D01*
X153484894Y-97068274D01*
X153534272Y-97055849D01*
X153587767Y-97046846D01*
X153649823Y-97040965D01*
X153716514Y-97039009D01*
X153756881Y-97039705D01*
G37*
G36*
X149130000Y-98910642D02*
G01*
X149130000Y-98746816D01*
X148618066Y-98746816D01*
X148618066Y-99088450D01*
X148751118Y-99088450D01*
X148751118Y-98910642D01*
X148831107Y-98910642D01*
X148861271Y-98912585D01*
X148889269Y-98918373D01*
X148913583Y-98927385D01*
X148935361Y-98939762D01*
X148953455Y-98954598D01*
X148968759Y-98972378D01*
X148980712Y-98992396D01*
X148989592Y-99015099D01*
X148995171Y-99040409D01*
X148997245Y-99068313D01*
X148997254Y-99070254D01*
X148995325Y-99098839D01*
X148989643Y-99124530D01*
X148980826Y-99146525D01*
X148968842Y-99166066D01*
X148935565Y-99198431D01*
X148887599Y-99223324D01*
X148820482Y-99240461D01*
X148728025Y-99247947D01*
X148713321Y-99248063D01*
X148556945Y-99248063D01*
X148501106Y-99246067D01*
X148450887Y-99239907D01*
X148412836Y-99231191D01*
X148379360Y-99219114D01*
X148354144Y-99205754D01*
X148332716Y-99189630D01*
X148316711Y-99172561D01*
X148304049Y-99153065D01*
X148295128Y-99131952D01*
X148289503Y-99108454D01*
X148287240Y-99078620D01*
X148289140Y-99051413D01*
X148294624Y-99027489D01*
X148314686Y-98988833D01*
X148347104Y-98958108D01*
X148395414Y-98932330D01*
X148445692Y-98914855D01*
X148398431Y-98746816D01*
X148354396Y-98760489D01*
X148313099Y-98777886D01*
X148279249Y-98796586D01*
X148248228Y-98818606D01*
X148222712Y-98841710D01*
X148200053Y-98867871D01*
X148181552Y-98895427D01*
X148166003Y-98925943D01*
X148153900Y-98958598D01*
X148144974Y-98994284D01*
X148139409Y-99033132D01*
X148137400Y-99075237D01*
X148137397Y-99077215D01*
X148139344Y-99120479D01*
X148145158Y-99160937D01*
X148154270Y-99196928D01*
X148166829Y-99230396D01*
X148182308Y-99260529D01*
X148200979Y-99288304D01*
X148247592Y-99336689D01*
X148307993Y-99376654D01*
X148384609Y-99408255D01*
X148480659Y-99430550D01*
X148599909Y-99441747D01*
X148647498Y-99442602D01*
X148719893Y-99440653D01*
X148787170Y-99434825D01*
X148845430Y-99425870D01*
X148898933Y-99413558D01*
X148944376Y-99399091D01*
X148985478Y-99381752D01*
X149019778Y-99363028D01*
X149050137Y-99341842D01*
X149075024Y-99319677D01*
X149096279Y-99295360D01*
X149113202Y-99270003D01*
X149126651Y-99242686D01*
X149142765Y-99183052D01*
X149145631Y-99141634D01*
X149143733Y-99107896D01*
X149138261Y-99077312D01*
X149117777Y-99024700D01*
X149085364Y-98981349D01*
X149040706Y-98945805D01*
X148993040Y-98921816D01*
X148993040Y-98910642D01*
X149130000Y-98910642D01*
G37*
G36*
X149130000Y-98139994D02*
G01*
X149130000Y-97914619D01*
X148153028Y-97914619D01*
X148153028Y-98071423D01*
X148854249Y-98071423D01*
X148854249Y-98085406D01*
X148153028Y-98341617D01*
X148153028Y-98566992D01*
X149130000Y-98566992D01*
X149130000Y-98410188D01*
X148428839Y-98410188D01*
X148428839Y-98396205D01*
X149130000Y-98139994D01*
G37*
G36*
X148681881Y-97039705D02*
G01*
X148795379Y-97050560D01*
X148887523Y-97072788D01*
X148961674Y-97104697D01*
X149020690Y-97145474D01*
X149066659Y-97195317D01*
X149085209Y-97224146D01*
X149100596Y-97255448D01*
X149113136Y-97290379D01*
X149122236Y-97327963D01*
X149128052Y-97370294D01*
X149130000Y-97415570D01*
X149130000Y-97719408D01*
X148153028Y-97719408D01*
X148153028Y-97428210D01*
X148300062Y-97428210D01*
X148300062Y-97538790D01*
X148983026Y-97538790D01*
X148983026Y-97428210D01*
X148977899Y-97376764D01*
X148960114Y-97328485D01*
X148946384Y-97307848D01*
X148929530Y-97289713D01*
X148908267Y-97273170D01*
X148883585Y-97259392D01*
X148852592Y-97247407D01*
X148817607Y-97238686D01*
X148773961Y-97232763D01*
X148725533Y-97230800D01*
X148556151Y-97230800D01*
X148469614Y-97237784D01*
X148407567Y-97255637D01*
X148361691Y-97282603D01*
X148328810Y-97318741D01*
X148316665Y-97341099D01*
X148307796Y-97366074D01*
X148302006Y-97395624D01*
X148300062Y-97428210D01*
X148153028Y-97428210D01*
X148153028Y-97415570D01*
X148153182Y-97402544D01*
X148162236Y-97320721D01*
X148184192Y-97251393D01*
X148199820Y-97220677D01*
X148218549Y-97192386D01*
X148240754Y-97166086D01*
X148266107Y-97142282D01*
X148295826Y-97120133D01*
X148328890Y-97100673D01*
X148367553Y-97082972D01*
X148409894Y-97068274D01*
X148459272Y-97055849D01*
X148512767Y-97046846D01*
X148574823Y-97040965D01*
X148641514Y-97039009D01*
X148681881Y-97039705D01*
G37*
G36*
X146081881Y-93518142D02*
G01*
X146195379Y-93528997D01*
X146287523Y-93551225D01*
X146361674Y-93583134D01*
X146420690Y-93623911D01*
X146466659Y-93673754D01*
X146485209Y-93702583D01*
X146500596Y-93733885D01*
X146513136Y-93768816D01*
X146522236Y-93806400D01*
X146528052Y-93848731D01*
X146530000Y-93894007D01*
X146530000Y-94197845D01*
X145553028Y-94197845D01*
X145553028Y-93906646D01*
X145700062Y-93906646D01*
X145700062Y-94017227D01*
X146383026Y-94017227D01*
X146383026Y-93906646D01*
X146377899Y-93855201D01*
X146360114Y-93806922D01*
X146346384Y-93786285D01*
X146329530Y-93768150D01*
X146308267Y-93751607D01*
X146283585Y-93737829D01*
X146252592Y-93725844D01*
X146217607Y-93717123D01*
X146173961Y-93711200D01*
X146125533Y-93709237D01*
X145956151Y-93709237D01*
X145869614Y-93716221D01*
X145807567Y-93734074D01*
X145761691Y-93761040D01*
X145728810Y-93797178D01*
X145716665Y-93819536D01*
X145707796Y-93844511D01*
X145702006Y-93874061D01*
X145700062Y-93906646D01*
X145553028Y-93906646D01*
X145553028Y-93894007D01*
X145553182Y-93880981D01*
X145562236Y-93799157D01*
X145584192Y-93729830D01*
X145599820Y-93699113D01*
X145618549Y-93670823D01*
X145640754Y-93644523D01*
X145666107Y-93620719D01*
X145695826Y-93598570D01*
X145728890Y-93579110D01*
X145767553Y-93561409D01*
X145809894Y-93546710D01*
X145859272Y-93534286D01*
X145912767Y-93525282D01*
X145974823Y-93519402D01*
X146041514Y-93517445D01*
X146081881Y-93518142D01*
G37*
G36*
X146545631Y-93052041D02*
G01*
X146543704Y-93002963D01*
X146538030Y-92957276D01*
X146529044Y-92916034D01*
X146516799Y-92878089D01*
X146501829Y-92844237D01*
X146484030Y-92813602D01*
X146463893Y-92786637D01*
X146441284Y-92762852D01*
X146389451Y-92725107D01*
X146328811Y-92700187D01*
X146259314Y-92688664D01*
X146236847Y-92687997D01*
X146199369Y-92689953D01*
X146164271Y-92695828D01*
X146133376Y-92704985D01*
X146104725Y-92717657D01*
X146079246Y-92733238D01*
X146055968Y-92752113D01*
X146016436Y-92799459D01*
X145985668Y-92861415D01*
X145964822Y-92938590D01*
X145946687Y-93040806D01*
X145937252Y-93084823D01*
X145924982Y-93120329D01*
X145912925Y-93142868D01*
X145898622Y-93160623D01*
X145883824Y-93172633D01*
X145866944Y-93181251D01*
X145825666Y-93189105D01*
X145818337Y-93189244D01*
X145791519Y-93187296D01*
X145767714Y-93181473D01*
X145748506Y-93172732D01*
X145731880Y-93160771D01*
X145706957Y-93128300D01*
X145691623Y-93081726D01*
X145687240Y-93029631D01*
X145689158Y-92992899D01*
X145694769Y-92958637D01*
X145703840Y-92926843D01*
X145716163Y-92897400D01*
X145750583Y-92844293D01*
X145787684Y-92807004D01*
X145673196Y-92699232D01*
X145646977Y-92722723D01*
X145623189Y-92749364D01*
X145602117Y-92778908D01*
X145583741Y-92811492D01*
X145568172Y-92847183D01*
X145555612Y-92885864D01*
X145540036Y-92973009D01*
X145537397Y-93031036D01*
X145539340Y-93080067D01*
X145545126Y-93125840D01*
X145554154Y-93166282D01*
X145566555Y-93203516D01*
X145581447Y-93235877D01*
X145599300Y-93265111D01*
X145619183Y-93290140D01*
X145641708Y-93312094D01*
X145666215Y-93330478D01*
X145693162Y-93345753D01*
X145754077Y-93366594D01*
X145825579Y-93374012D01*
X145826702Y-93374014D01*
X145865079Y-93372023D01*
X145901697Y-93365906D01*
X145933342Y-93356537D01*
X145963081Y-93343383D01*
X145988938Y-93327538D01*
X146012778Y-93308113D01*
X146033677Y-93285886D01*
X146052390Y-93260089D01*
X146068671Y-93230790D01*
X146082490Y-93197724D01*
X146101536Y-93123421D01*
X146118267Y-93019801D01*
X146126933Y-92977558D01*
X146138578Y-92943169D01*
X146150403Y-92920784D01*
X146164570Y-92902989D01*
X146179433Y-92890720D01*
X146196453Y-92881779D01*
X146238258Y-92873129D01*
X146249364Y-92872827D01*
X146276902Y-92874769D01*
X146301791Y-92880546D01*
X146322698Y-92889407D01*
X146341124Y-92901531D01*
X146369714Y-92934412D01*
X146388391Y-92980360D01*
X146395823Y-93042113D01*
X146395849Y-93046423D01*
X146393883Y-93083299D01*
X146387935Y-93119033D01*
X146378372Y-93152364D01*
X146364979Y-93184604D01*
X146326907Y-93245167D01*
X146273117Y-93301229D01*
X146387484Y-93411810D01*
X146417332Y-93386037D01*
X146444660Y-93357067D01*
X146468455Y-93326012D01*
X146489462Y-93291933D01*
X146507086Y-93255706D01*
X146521647Y-93216558D01*
X146532833Y-93174980D01*
X146540641Y-93130515D01*
X146545631Y-93052041D01*
G37*
G36*
X146530000Y-91820812D02*
G01*
X146380218Y-91820812D01*
X146380218Y-92041974D01*
X145553028Y-92041974D01*
X145553028Y-92323403D01*
X145841418Y-92565570D01*
X145937955Y-92450776D01*
X145686079Y-92237979D01*
X145686079Y-92225401D01*
X146380218Y-92225401D01*
X146380218Y-92494190D01*
X146530000Y-92494190D01*
X146530000Y-91820812D01*
G37*
G36*
X146269439Y-91001279D02*
G01*
X146333870Y-91010278D01*
X146391602Y-91033499D01*
X146417808Y-91050315D01*
X146442039Y-91070539D01*
X146464324Y-91094351D01*
X146484270Y-91121532D01*
X146501964Y-91152537D01*
X146516900Y-91186912D01*
X146529097Y-91225322D01*
X146538072Y-91267115D01*
X146543709Y-91313049D01*
X146545631Y-91362369D01*
X146545495Y-91375730D01*
X146536302Y-91467537D01*
X146514219Y-91544787D01*
X146481164Y-91607921D01*
X146461024Y-91634326D01*
X146438612Y-91657416D01*
X146414056Y-91677167D01*
X146387544Y-91693495D01*
X146358898Y-91706480D01*
X146328583Y-91715861D01*
X146296139Y-91721659D01*
X146262309Y-91723604D01*
X146250595Y-91723377D01*
X146218322Y-91720225D01*
X146188419Y-91713507D01*
X146160450Y-91703220D01*
X146134905Y-91689637D01*
X146110795Y-91672138D01*
X146089305Y-91651476D01*
X146069242Y-91626182D01*
X146052134Y-91597806D01*
X146037014Y-91564161D01*
X146025272Y-91527599D01*
X146014098Y-91527599D01*
X145988154Y-91583249D01*
X145951250Y-91630775D01*
X145906227Y-91665190D01*
X145880703Y-91677544D01*
X145852965Y-91686624D01*
X145822863Y-91692252D01*
X145790554Y-91694173D01*
X145744662Y-91690157D01*
X145688443Y-91672306D01*
X145662959Y-91658123D01*
X145639453Y-91640532D01*
X145617681Y-91619185D01*
X145598225Y-91594440D01*
X145580777Y-91565531D01*
X145566064Y-91533178D01*
X145553915Y-91496311D01*
X145544982Y-91455946D01*
X145539322Y-91410917D01*
X145537397Y-91362369D01*
X145680218Y-91362369D01*
X145684410Y-91410687D01*
X145700253Y-91458080D01*
X145726001Y-91491680D01*
X145742679Y-91503924D01*
X145761641Y-91512859D01*
X145784023Y-91518635D01*
X145808689Y-91520577D01*
X145828229Y-91520577D01*
X145863361Y-91516633D01*
X145901927Y-91499875D01*
X145918055Y-91486498D01*
X145931720Y-91469917D01*
X145943293Y-91449101D01*
X145951863Y-91424885D01*
X145957523Y-91395467D01*
X145959448Y-91362369D01*
X146095247Y-91362369D01*
X146101775Y-91423982D01*
X146119822Y-91470825D01*
X146147720Y-91504249D01*
X146165605Y-91516495D01*
X146185824Y-91525428D01*
X146209658Y-91531213D01*
X146235870Y-91533155D01*
X146263653Y-91533155D01*
X146306359Y-91527415D01*
X146344954Y-91508438D01*
X146361217Y-91493788D01*
X146374974Y-91475901D01*
X146386644Y-91453614D01*
X146395268Y-91427909D01*
X146400944Y-91396958D01*
X146402871Y-91362369D01*
X146396356Y-91301274D01*
X146378203Y-91254166D01*
X146350256Y-91220506D01*
X146332515Y-91208236D01*
X146312503Y-91199275D01*
X146289202Y-91193521D01*
X146263653Y-91191582D01*
X146235870Y-91191582D01*
X146191692Y-91197466D01*
X146153003Y-91216345D01*
X146136793Y-91230843D01*
X146123092Y-91248559D01*
X146111459Y-91270708D01*
X146102864Y-91296320D01*
X146097176Y-91327445D01*
X146095247Y-91362369D01*
X145959448Y-91362369D01*
X145955021Y-91313436D01*
X145938818Y-91266528D01*
X145912535Y-91233059D01*
X145895493Y-91220814D01*
X145876140Y-91211878D01*
X145853330Y-91206102D01*
X145828229Y-91204160D01*
X145808689Y-91204160D01*
X145775654Y-91207753D01*
X145737485Y-91224105D01*
X145721471Y-91237356D01*
X145707903Y-91253850D01*
X145696359Y-91274722D01*
X145687811Y-91299068D01*
X145682144Y-91328824D01*
X145680218Y-91362369D01*
X145537397Y-91362369D01*
X145542171Y-91287192D01*
X145559904Y-91208624D01*
X145588636Y-91145202D01*
X145626688Y-91096031D01*
X145673134Y-91060407D01*
X145699524Y-91047579D01*
X145727731Y-91038287D01*
X145758329Y-91032507D01*
X145790554Y-91030565D01*
X145838395Y-91034891D01*
X145867523Y-91042377D01*
X145894396Y-91053307D01*
X145919863Y-91068061D01*
X145942872Y-91086070D01*
X145964510Y-91108406D01*
X145983358Y-91133859D01*
X146000333Y-91164078D01*
X146014098Y-91197199D01*
X146025272Y-91197199D01*
X146032947Y-91171869D01*
X146061148Y-91111070D01*
X146098183Y-91064106D01*
X146143528Y-91030069D01*
X146169476Y-91017785D01*
X146197775Y-91008754D01*
X146228827Y-91003116D01*
X146262309Y-91001195D01*
X146269439Y-91001279D01*
G37*
G36*
X146304688Y-90173640D02*
G01*
X146368395Y-90190359D01*
X146422768Y-90220044D01*
X146446302Y-90239479D01*
X146467230Y-90261833D01*
X146485530Y-90287189D01*
X146500890Y-90315279D01*
X146513306Y-90346414D01*
X146522398Y-90380116D01*
X146528072Y-90416850D01*
X146530000Y-90455983D01*
X146530000Y-90831140D01*
X145553028Y-90831140D01*
X145553028Y-90535790D01*
X145686079Y-90535790D01*
X145686079Y-90651988D01*
X145971172Y-90651988D01*
X145971172Y-90535790D01*
X145969865Y-90511976D01*
X146098606Y-90511976D01*
X146098606Y-90651988D01*
X146397009Y-90651988D01*
X146397009Y-90511976D01*
X146393612Y-90462465D01*
X146380369Y-90416706D01*
X146357985Y-90385748D01*
X146342315Y-90374236D01*
X146323671Y-90365782D01*
X146298961Y-90359933D01*
X146270125Y-90357981D01*
X146224085Y-90357981D01*
X146195661Y-90359935D01*
X146155795Y-90372579D01*
X146139949Y-90383444D01*
X146126862Y-90397299D01*
X146115263Y-90416502D01*
X146106848Y-90439486D01*
X146100613Y-90472894D01*
X146098606Y-90511976D01*
X145969865Y-90511976D01*
X145968957Y-90495420D01*
X145957317Y-90448821D01*
X145936662Y-90417885D01*
X145921912Y-90406421D01*
X145904192Y-90398011D01*
X145880134Y-90392118D01*
X145851798Y-90390160D01*
X145805453Y-90390160D01*
X145783546Y-90391288D01*
X145743055Y-90402203D01*
X145727281Y-90412021D01*
X145714279Y-90424772D01*
X145702764Y-90442705D01*
X145694410Y-90464418D01*
X145688098Y-90497080D01*
X145686079Y-90535790D01*
X145553028Y-90535790D01*
X145553028Y-90490971D01*
X145555642Y-90441234D01*
X145570634Y-90369759D01*
X145597264Y-90311675D01*
X145634439Y-90265898D01*
X145657015Y-90247359D01*
X145682041Y-90231932D01*
X145710165Y-90219406D01*
X145740661Y-90210294D01*
X145774704Y-90204522D01*
X145811071Y-90202581D01*
X145857838Y-90206369D01*
X145911588Y-90223012D01*
X145934971Y-90236304D01*
X145955777Y-90252704D01*
X145975126Y-90273406D01*
X145991707Y-90297352D01*
X146006836Y-90327280D01*
X146018799Y-90360790D01*
X146025821Y-90360790D01*
X146032333Y-90336774D01*
X146057709Y-90276912D01*
X146091597Y-90231709D01*
X146134611Y-90198908D01*
X146160343Y-90186835D01*
X146188845Y-90177967D01*
X146221601Y-90172272D01*
X146257547Y-90170341D01*
X146304688Y-90173640D01*
G37*
G36*
X146376004Y-89333932D02*
G01*
X146376004Y-89822540D01*
X146204180Y-89609743D01*
X146132736Y-89525032D01*
X146059952Y-89453636D01*
X146023060Y-89425044D01*
X145984593Y-89401075D01*
X145950435Y-89384732D01*
X145914597Y-89372357D01*
X145879963Y-89364737D01*
X145843503Y-89360948D01*
X145826946Y-89360554D01*
X145790505Y-89362496D01*
X145755755Y-89368275D01*
X145723588Y-89377567D01*
X145693387Y-89390392D01*
X145665826Y-89406350D01*
X145640489Y-89425584D01*
X145617767Y-89447778D01*
X145597539Y-89473056D01*
X145579969Y-89501347D01*
X145565208Y-89532598D01*
X145544617Y-89604414D01*
X145537397Y-89688145D01*
X145539307Y-89732369D01*
X145544867Y-89773391D01*
X145553826Y-89811326D01*
X145565921Y-89846218D01*
X145599115Y-89908130D01*
X145643757Y-89960135D01*
X145699645Y-90002493D01*
X145766469Y-90034560D01*
X145780846Y-90039549D01*
X145840929Y-89879937D01*
X145806465Y-89867647D01*
X145775069Y-89851440D01*
X145752283Y-89834919D01*
X145732656Y-89815188D01*
X145718372Y-89794928D01*
X145707266Y-89771790D01*
X145699997Y-89747117D01*
X145696154Y-89719561D01*
X145695605Y-89703532D01*
X145697546Y-89673441D01*
X145703321Y-89646349D01*
X145712074Y-89623985D01*
X145724021Y-89604508D01*
X145738285Y-89588798D01*
X145755331Y-89575943D01*
X145797211Y-89559353D01*
X145838121Y-89555155D01*
X145852103Y-89555155D01*
X145879732Y-89557113D01*
X145906584Y-89563004D01*
X145959058Y-89586605D01*
X146016556Y-89630100D01*
X146092438Y-89709150D01*
X146359274Y-90022758D01*
X146530000Y-90022758D01*
X146530000Y-89333932D01*
X146376004Y-89333932D01*
G37*
G36*
X146074511Y-88759604D02*
G01*
X146100012Y-88771771D01*
X146110015Y-88782938D01*
X146117723Y-88797895D01*
X146123099Y-88818712D01*
X146124984Y-88844713D01*
X146124008Y-88863884D01*
X146113514Y-88900801D01*
X146104187Y-88913763D01*
X146092665Y-88922949D01*
X146076253Y-88929491D01*
X146057756Y-88931542D01*
X146026981Y-88931542D01*
X146010215Y-88929881D01*
X145984722Y-88917710D01*
X145974721Y-88906537D01*
X145967014Y-88891572D01*
X145961638Y-88870738D01*
X145959754Y-88844713D01*
X145960727Y-88825581D01*
X145971219Y-88788680D01*
X145980548Y-88775721D01*
X145992072Y-88766536D01*
X146008484Y-88759997D01*
X146026981Y-88757946D01*
X146057756Y-88757946D01*
X146074511Y-88759604D01*
G37*
G36*
X146090667Y-88476042D02*
G01*
X146206875Y-88487420D01*
X146300973Y-88509915D01*
X146376394Y-88541793D01*
X146436112Y-88582160D01*
X146482363Y-88631105D01*
X146500913Y-88659200D01*
X146516330Y-88689738D01*
X146528821Y-88723588D01*
X146537905Y-88760058D01*
X146543688Y-88800930D01*
X146545631Y-88844713D01*
X146545522Y-88855323D01*
X146536725Y-88935184D01*
X146514819Y-89003102D01*
X146499057Y-89033382D01*
X146480166Y-89061222D01*
X146457553Y-89087314D01*
X146431756Y-89110884D01*
X146401231Y-89132997D01*
X146367316Y-89152378D01*
X146327313Y-89170144D01*
X146283587Y-89184854D01*
X146232202Y-89197371D01*
X146176673Y-89206412D01*
X146111829Y-89212349D01*
X146042369Y-89214314D01*
X145993023Y-89213351D01*
X145876530Y-89201899D01*
X145782255Y-89179354D01*
X145706731Y-89147450D01*
X145646958Y-89107081D01*
X145600681Y-89058157D01*
X145582124Y-89030080D01*
X145566703Y-88999566D01*
X145554209Y-88965742D01*
X145545124Y-88929304D01*
X145539339Y-88888463D01*
X145537397Y-88844713D01*
X145684431Y-88844713D01*
X145687880Y-88884666D01*
X145703885Y-88931338D01*
X145717025Y-88951451D01*
X145733349Y-88968983D01*
X145754817Y-88985378D01*
X145779857Y-88998910D01*
X145812917Y-89011107D01*
X145850310Y-89019879D01*
X145900185Y-89026130D01*
X145955540Y-89028140D01*
X146129197Y-89028140D01*
X146136457Y-89028108D01*
X146225843Y-89021245D01*
X146290763Y-89004388D01*
X146337464Y-88979333D01*
X146370245Y-88946091D01*
X146382212Y-88925632D01*
X146390999Y-88902563D01*
X146396724Y-88875206D01*
X146398658Y-88844713D01*
X146395282Y-88805041D01*
X146379395Y-88758224D01*
X146366338Y-88738078D01*
X146350109Y-88720521D01*
X146328776Y-88704118D01*
X146303889Y-88690581D01*
X146271032Y-88678383D01*
X146233863Y-88669611D01*
X146184260Y-88663358D01*
X146129197Y-88661348D01*
X145955540Y-88661348D01*
X145947262Y-88661389D01*
X145857588Y-88668354D01*
X145792484Y-88685279D01*
X145745680Y-88710366D01*
X145712855Y-88743591D01*
X145700881Y-88764015D01*
X145692090Y-88787036D01*
X145686365Y-88814315D01*
X145684431Y-88844713D01*
X145537397Y-88844713D01*
X145537516Y-88833618D01*
X145546390Y-88753909D01*
X145568367Y-88686111D01*
X145584169Y-88655878D01*
X145603102Y-88628081D01*
X145625767Y-88602021D01*
X145651624Y-88578480D01*
X145682226Y-88556387D01*
X145716231Y-88537023D01*
X145756351Y-88519268D01*
X145800211Y-88504566D01*
X145851771Y-88492053D01*
X145907502Y-88483015D01*
X145972609Y-88477078D01*
X146042369Y-88475113D01*
X146090667Y-88476042D01*
G37*
D11*
X149124819Y-95666666D02*
X148648628Y-95999999D01*
X149124819Y-96238094D02*
X148124819Y-96238094D01*
X148124819Y-96238094D02*
X148124819Y-95857142D01*
X148124819Y-95857142D02*
X148172438Y-95761904D01*
X148172438Y-95761904D02*
X148220057Y-95714285D01*
X148220057Y-95714285D02*
X148315295Y-95666666D01*
X148315295Y-95666666D02*
X148458152Y-95666666D01*
X148458152Y-95666666D02*
X148553390Y-95714285D01*
X148553390Y-95714285D02*
X148601009Y-95761904D01*
X148601009Y-95761904D02*
X148648628Y-95857142D01*
X148648628Y-95857142D02*
X148648628Y-96238094D01*
X149124819Y-94714285D02*
X149124819Y-95285713D01*
X149124819Y-94999999D02*
X148124819Y-94999999D01*
X148124819Y-94999999D02*
X148267676Y-95095237D01*
X148267676Y-95095237D02*
X148362914Y-95190475D01*
X148362914Y-95190475D02*
X148410533Y-95285713D01*
X155566666Y-99954819D02*
X155566666Y-100669104D01*
X155566666Y-100669104D02*
X155519047Y-100811961D01*
X155519047Y-100811961D02*
X155423809Y-100907200D01*
X155423809Y-100907200D02*
X155280952Y-100954819D01*
X155280952Y-100954819D02*
X155185714Y-100954819D01*
X156566666Y-100954819D02*
X155995238Y-100954819D01*
X156280952Y-100954819D02*
X156280952Y-99954819D01*
X156280952Y-99954819D02*
X156185714Y-100097676D01*
X156185714Y-100097676D02*
X156090476Y-100192914D01*
X156090476Y-100192914D02*
X155995238Y-100240533D01*
X153859580Y-95666666D02*
X153907200Y-95714285D01*
X153907200Y-95714285D02*
X153954819Y-95857142D01*
X153954819Y-95857142D02*
X153954819Y-95952380D01*
X153954819Y-95952380D02*
X153907200Y-96095237D01*
X153907200Y-96095237D02*
X153811961Y-96190475D01*
X153811961Y-96190475D02*
X153716723Y-96238094D01*
X153716723Y-96238094D02*
X153526247Y-96285713D01*
X153526247Y-96285713D02*
X153383390Y-96285713D01*
X153383390Y-96285713D02*
X153192914Y-96238094D01*
X153192914Y-96238094D02*
X153097676Y-96190475D01*
X153097676Y-96190475D02*
X153002438Y-96095237D01*
X153002438Y-96095237D02*
X152954819Y-95952380D01*
X152954819Y-95952380D02*
X152954819Y-95857142D01*
X152954819Y-95857142D02*
X153002438Y-95714285D01*
X153002438Y-95714285D02*
X153050057Y-95666666D01*
X153954819Y-94714285D02*
X153954819Y-95285713D01*
X153954819Y-94999999D02*
X152954819Y-94999999D01*
X152954819Y-94999999D02*
X153097676Y-95095237D01*
X153097676Y-95095237D02*
X153192914Y-95190475D01*
X153192914Y-95190475D02*
X153240533Y-95285713D01*
X147438095Y-88554819D02*
X147438095Y-89364342D01*
X147438095Y-89364342D02*
X147485714Y-89459580D01*
X147485714Y-89459580D02*
X147533333Y-89507200D01*
X147533333Y-89507200D02*
X147628571Y-89554819D01*
X147628571Y-89554819D02*
X147819047Y-89554819D01*
X147819047Y-89554819D02*
X147914285Y-89507200D01*
X147914285Y-89507200D02*
X147961904Y-89459580D01*
X147961904Y-89459580D02*
X148009523Y-89364342D01*
X148009523Y-89364342D02*
X148009523Y-88554819D01*
X149009523Y-89554819D02*
X148438095Y-89554819D01*
X148723809Y-89554819D02*
X148723809Y-88554819D01*
X148723809Y-88554819D02*
X148628571Y-88697676D01*
X148628571Y-88697676D02*
X148533333Y-88792914D01*
X148533333Y-88792914D02*
X148438095Y-88840533D01*
D12*
%TO.C,R1*%
X149577500Y-95737258D02*
X149577500Y-95262742D01*
X150622500Y-95737258D02*
X150622500Y-95262742D01*
%TO.C,J1*%
X147280000Y-101905000D02*
X147280000Y-104665000D01*
X147280000Y-104665000D02*
X155120000Y-104665000D01*
X148230000Y-101592358D02*
X148230000Y-101905000D01*
X148230000Y-110665000D02*
X148230000Y-104665000D01*
X149090000Y-101592358D02*
X149090000Y-101905000D01*
X149090000Y-104665000D02*
X149090000Y-110665000D01*
X149090000Y-110665000D02*
X148230000Y-110665000D01*
X149930000Y-101905000D02*
X149930000Y-104665000D01*
X150770000Y-101592358D02*
X150770000Y-101905000D01*
X150770000Y-110665000D02*
X150770000Y-104665000D01*
X151630000Y-101592358D02*
X151630000Y-101905000D01*
X151630000Y-104665000D02*
X151630000Y-110665000D01*
X151630000Y-110665000D02*
X150770000Y-110665000D01*
X152470000Y-101905000D02*
X152470000Y-104665000D01*
X153310000Y-101675000D02*
X153310000Y-101905000D01*
X153740000Y-99245000D02*
X155010000Y-99245000D01*
X154170000Y-101675000D02*
X154170000Y-101905000D01*
X155010000Y-99245000D02*
X155010000Y-100515000D01*
X155120000Y-101905000D02*
X147280000Y-101905000D01*
X155120000Y-104665000D02*
X155120000Y-101905000D01*
X154170000Y-104665000D02*
X153310000Y-104665000D01*
X153310000Y-110665000D01*
X154170000Y-110665000D01*
X154170000Y-104665000D01*
G36*
X154170000Y-104665000D02*
G01*
X153310000Y-104665000D01*
X153310000Y-110665000D01*
X154170000Y-110665000D01*
X154170000Y-104665000D01*
G37*
%TO.C,C1*%
X151490000Y-95640580D02*
X151490000Y-95359420D01*
X152510000Y-95640580D02*
X152510000Y-95359420D01*
%TO.C,U1*%
X148415000Y-82295000D02*
X148415000Y-87485000D01*
X148415000Y-87485000D02*
X153215000Y-87485000D01*
X148783000Y-92692000D02*
X149164000Y-92311000D01*
X149164000Y-92311000D02*
X149545000Y-92692000D01*
X149545000Y-90275000D02*
X149545000Y-87485000D01*
X149545000Y-92692000D02*
X148783000Y-92692000D01*
X150561000Y-87485000D02*
X150561000Y-82405000D01*
X150815000Y-91545000D02*
X150815000Y-87485000D01*
X151069000Y-87485000D02*
X151069000Y-82405000D01*
X152085000Y-90275000D02*
X152085000Y-87485000D01*
X153215000Y-82295000D02*
X148415000Y-82295000D01*
X153215000Y-87485000D02*
X153215000Y-82295000D01*
%TD*%
M02*
